<svg width="212" height="47" viewBox="0 0 212 47" fill="none" xmlns="http://www.w3.org/2000/svg">
<path fill-rule="evenodd" clip-rule="evenodd" d="M7.3408 40.6575L4.67548 42.2805C2.62065 43.5164 0 42.0423 0 39.645V7.36332C0 4.95113 2.62065 3.47702 4.67548 4.72778L13.5797 10.1329C13.1777 10.0584 12.7608 10.0138 12.329 10.0138C8.10019 10.0138 4.66059 13.3491 4.45213 17.5183H7.81728C8.30866 17.5183 8.80003 17.9204 8.82981 18.4266C8.85959 18.9776 8.41289 19.4392 7.86195 19.4392H4.45213V21.3153H7.86195C8.41289 21.3153 8.85959 21.762 8.82981 22.3278C8.80003 22.849 8.33844 23.2361 7.81728 23.2361H4.45213V25.0974H7.81728C8.30866 25.0974 8.80003 25.5143 8.82981 26.0206C8.85959 26.5715 8.41289 27.0331 7.86195 27.0331H4.45213C4.66059 31.2023 8.10019 34.5228 12.329 34.5228C12.463 34.5228 12.597 34.5079 12.7459 34.5079L11.1527 36.2203V38.3496L11.0186 38.424H9.67854C8.42778 38.424 7.40036 39.4216 7.3408 40.6575ZM31.284 26.1397L13.5053 36.9201V34.4335C17.1682 33.8825 20.0122 30.8003 20.1909 27.0331H16.7811C16.2302 27.0331 15.7984 26.5715 15.8133 26.0206C15.843 25.5143 16.3344 25.0974 16.8407 25.0974H20.2058V23.2361H16.7811C16.2302 23.2361 15.7984 22.7745 15.8133 22.2236C15.843 21.7025 16.3195 21.3153 16.8407 21.3153H20.2058V19.4392H16.8407C16.3344 19.4392 15.843 19.0371 15.8133 18.5309C15.7984 17.9799 16.2302 17.5183 16.7811 17.5183H20.1909C20.1165 15.8953 19.5507 14.4063 18.6424 13.1853L31.284 20.8686C33.2644 22.0598 33.2644 24.9336 31.284 26.1397Z" fill="url(#paint0_linear_6_1691)"/>
<path style="mix-blend-mode:multiply" fill-rule="evenodd" clip-rule="evenodd" d="M12.7459 34.5079L11.1527 36.2203V38.3496L11.0186 38.424H9.67854C8.42778 38.424 7.40036 39.4216 7.3408 40.6575L4.67548 42.2805C2.62065 43.5164 0 42.0423 0 39.645V7.36332C0 4.95113 2.62065 3.47702 4.67548 4.72778L13.5797 10.1329C13.1777 10.0584 12.7608 10.0138 12.329 10.0138C8.10019 10.0138 4.66059 13.3491 4.45213 17.5183H7.81728C8.30866 17.5183 8.80003 17.9204 8.82981 18.4266C8.85959 18.9776 8.41289 19.4392 7.86195 19.4392H4.45213V21.3153H7.86195C8.41289 21.3153 8.85959 21.762 8.82981 22.3278C8.80003 22.849 8.33844 23.2361 7.81728 23.2361H4.45213V25.0974H7.81728C8.30866 25.0974 8.80003 25.5143 8.82981 26.0206C8.85959 26.5715 8.41289 27.0331 7.86195 27.0331H4.45213C4.66059 31.2023 8.10019 34.5228 12.329 34.5228C12.463 34.5228 12.597 34.5079 12.7459 34.5079ZM23.02 31.1428L13.5053 36.9201V34.4335C17.1682 33.8825 20.0122 30.8003 20.1909 27.0331H16.7811C16.2302 27.0331 15.7984 26.5715 15.8133 26.0206C15.843 25.5143 16.3344 25.0974 16.8407 25.0974H20.2058V23.2361H16.7811C16.2302 23.2361 15.7984 22.7745 15.8133 22.2236C15.843 21.7025 16.3195 21.3153 16.8407 21.3153H20.2058V19.7668C20.9057 21.4344 21.5013 23.1617 21.9777 24.9485C22.5436 27.0927 22.886 29.1624 23.02 31.1428ZM16.7811 17.5183H19.1635C19.4812 18.1437 19.779 18.784 20.0569 19.4392H16.8407C16.3344 19.4392 15.843 19.0371 15.8133 18.5309C15.7984 17.9799 16.2302 17.5183 16.7811 17.5183Z" fill="url(#paint1_linear_6_1691)"/>
<path style="mix-blend-mode:screen" fill-rule="evenodd" clip-rule="evenodd" d="M4.45213 20.6453V19.4392H7.86195C8.41289 19.4392 8.85959 18.9776 8.82981 18.4266C8.80003 17.9204 8.30866 17.5183 7.81729 17.5183H4.45213C4.66059 13.3491 8.10019 10.0138 12.329 10.0138C12.7608 10.0138 13.1777 10.0584 13.5797 10.1329L4.67548 4.72778C2.62065 3.47702 0 4.95113 0 7.36332V16.9823C1.31033 18.3075 2.79933 19.5285 4.45213 20.6453ZM8.82981 22.3278C8.85959 21.762 8.41289 21.3153 7.86195 21.3153H5.47954C6.44243 21.9109 7.45 22.4668 8.50223 22.983C8.6958 22.8192 8.81492 22.581 8.82981 22.3278ZM31.284 20.8686L18.6424 13.1853C19.5507 14.4063 20.1165 15.8953 20.1909 17.5183H16.7811C16.2302 17.5183 15.7984 17.9799 15.8133 18.5309C15.843 19.0371 16.3344 19.4392 16.8407 19.4392H20.2058V21.3153H16.8407C16.3195 21.3153 15.843 21.7025 15.8133 22.2236C15.7984 22.7745 16.2302 23.2361 16.7811 23.2361H20.2058V25.0974H16.8407C16.4535 25.0974 16.0962 25.3356 15.9175 25.6632C17.3767 26.0206 18.8806 26.3035 20.4143 26.4822C24.3304 26.9587 28.038 26.78 31.3883 26.0652C33.2495 24.8294 33.2197 22.0449 31.284 20.8686Z" fill="url(#paint2_linear_6_1691)"/>
<path style="mix-blend-mode:screen" fill-rule="evenodd" clip-rule="evenodd" d="M31.284 26.1396L13.5053 36.92V34.4334C17.1682 33.8824 20.0122 30.8002 20.1909 27.033H16.7811C16.2302 27.033 15.7984 26.5714 15.8133 26.0205C15.843 25.5142 16.3344 25.0973 16.8407 25.0973H20.2058V23.236H16.7811C16.2302 23.236 15.7984 22.7744 15.8133 22.2235C15.843 21.7024 16.3195 21.3152 16.8407 21.3152H20.2058V19.4391H16.8407C16.3344 19.4391 15.843 19.037 15.8133 18.5308C15.7984 17.9798 16.2302 17.5182 16.7811 17.5182H20.1909C20.1314 16.3866 19.8336 15.3145 19.3571 14.3616C19.7045 14.3218 20.052 14.2871 20.3994 14.2573L31.284 20.8685C33.2644 22.0597 33.2644 24.9335 31.284 26.1396ZM0 39.6449V27.4797C1.19121 25.2313 2.79933 23.1318 4.73504 21.3152H7.86195C8.41289 21.3152 8.85959 21.7619 8.82981 22.3277C8.80003 22.8489 8.33844 23.236 7.81729 23.236H4.45213V25.0973H7.81729C8.30866 25.0973 8.80003 25.5142 8.82981 26.0205C8.85959 26.5714 8.41289 27.033 7.86195 27.033H4.45213C4.66059 31.2022 8.10019 34.5227 12.329 34.5227C12.463 34.5227 12.597 34.5078 12.7459 34.5078L11.1527 36.2202V38.3495L11.0186 38.4239H9.67854C8.42778 38.4239 7.40036 39.4215 7.3408 40.6574L4.67548 42.2804C2.62065 43.5163 0 42.0422 0 39.6449ZM6.92388 19.4391C7.51948 18.9924 8.13494 18.5705 8.77025 18.1734C8.80003 18.2479 8.82981 18.3372 8.82981 18.4265C8.85959 18.9775 8.41289 19.4391 7.86195 19.4391H6.92388Z" fill="url(#paint3_linear_6_1691)"/>
<path d="M43.7077 37V12.3891H54.0989C54.3382 12.3891 54.6572 12.4005 55.056 12.4233C55.4662 12.4347 55.8308 12.4688 56.1499 12.5258C57.6197 12.7537 58.8217 13.2379 59.756 13.9785C60.7017 14.7192 61.3968 15.6535 61.8411 16.7815C62.2855 17.8981 62.5077 19.1457 62.5077 20.5244C62.5077 21.903 62.2798 23.1564 61.824 24.2844C61.3797 25.401 60.6846 26.3296 59.7389 27.0702C58.8046 27.8108 57.6083 28.295 56.1499 28.5229C55.8308 28.5685 55.4662 28.6027 55.056 28.6255C54.6458 28.6482 54.3268 28.6596 54.0989 28.6596H48.3564V37H43.7077ZM48.3564 24.3185H53.8939C54.1331 24.3185 54.3952 24.3072 54.68 24.2844C54.9649 24.2616 55.2269 24.216 55.4662 24.1476C56.0929 23.9767 56.5771 23.6919 56.9189 23.2931C57.2608 22.8829 57.4943 22.4328 57.6197 21.9429C57.7564 21.4416 57.8248 20.9687 57.8248 20.5244C57.8248 20.08 57.7564 19.6128 57.6197 19.1229C57.4943 18.6216 57.2608 18.1715 56.9189 17.7727C56.5771 17.3625 56.0929 17.072 55.4662 16.9011C55.2269 16.8327 54.9649 16.7872 54.68 16.7644C54.3952 16.7416 54.1331 16.7302 53.8939 16.7302H48.3564V24.3185ZM72.2025 37.5127C70.3453 37.5127 68.7159 37.0968 67.3145 36.2651C65.913 35.4333 64.8192 34.2882 64.033 32.8298C63.2582 31.36 62.8708 29.6737 62.8708 27.7709C62.8708 25.8453 63.2696 24.1533 64.0672 22.6949C64.8648 21.2251 65.9643 20.08 67.3658 19.2596C68.7672 18.4393 70.3795 18.0291 72.2025 18.0291C74.0597 18.0291 75.689 18.445 77.0905 19.2767C78.5033 20.1085 79.6028 21.2593 80.389 22.7291C81.1752 24.1875 81.5683 25.8681 81.5683 27.7709C81.5683 29.6851 81.1695 31.3771 80.3719 32.8469C79.5858 34.3053 78.4862 35.4504 77.0734 36.2822C75.6719 37.1025 74.0483 37.5127 72.2025 37.5127ZM72.2025 33.1716C73.6951 33.1716 74.806 32.6703 75.5352 31.6676C76.2758 30.6536 76.6461 29.3547 76.6461 27.7709C76.6461 26.1302 76.2701 24.8199 75.5181 23.84C74.7775 22.8601 73.6723 22.3702 72.2025 22.3702C71.1884 22.3702 70.3567 22.5981 69.7072 23.0538C69.0578 23.5096 68.5735 24.1419 68.2545 24.9509C67.9468 25.7599 67.793 26.6999 67.793 27.7709C67.793 29.423 68.1633 30.739 68.9039 31.7189C69.6559 32.6874 70.7555 33.1716 72.2025 33.1716ZM91.1034 37.5127C89.4057 37.5127 87.9188 37.0855 86.6427 36.2309C85.3666 35.3764 84.3696 34.2142 83.6518 32.7444C82.9454 31.2745 82.5922 29.6167 82.5922 27.7709C82.5922 25.8909 82.9511 24.2217 83.6689 22.7633C84.3981 21.2935 85.4179 20.137 86.7282 19.2938C88.0385 18.4507 89.5766 18.0291 91.3427 18.0291C93.0974 18.0291 94.5729 18.4564 95.7692 19.3109C96.9656 20.1655 97.8714 21.3276 98.4867 22.7975C99.102 24.2673 99.4096 25.9251 99.4096 27.7709C99.4096 29.6167 99.0963 31.2745 98.4696 32.7444C97.8543 34.2142 96.9314 35.3764 95.7009 36.2309C94.4703 37.0855 92.9379 37.5127 91.1034 37.5127ZM91.8554 33.3767C92.8923 33.3767 93.7183 33.1432 94.3336 32.676C94.9603 32.2088 95.4103 31.5537 95.6838 30.7105C95.9572 29.8674 96.094 28.8875 96.094 27.7709C96.094 26.6543 95.9572 25.6744 95.6838 24.8313C95.4103 23.9881 94.9717 23.333 94.3678 22.8658C93.7753 22.3987 92.9948 22.1651 92.0263 22.1651C90.9895 22.1651 90.1349 22.4215 89.4627 22.9342C88.8019 23.4355 88.3119 24.1135 87.9929 24.968C87.6739 25.8112 87.5143 26.7455 87.5143 27.7709C87.5143 28.8078 87.6682 29.7535 87.9758 30.608C88.2834 31.4512 88.7563 32.1234 89.3943 32.6247C90.0324 33.1261 90.8528 33.3767 91.8554 33.3767ZM96.094 37V24.3527H95.5129V12.3891H100.196V37H96.094ZM111.407 37.5127C109.493 37.5127 107.853 37.0855 106.485 36.2309C105.118 35.3764 104.07 34.2142 103.341 32.7444C102.611 31.2745 102.247 29.6167 102.247 27.7709C102.247 25.9023 102.623 24.2331 103.375 22.7633C104.138 21.2935 105.209 20.137 106.588 19.2938C107.966 18.4507 109.596 18.0291 111.476 18.0291C113.652 18.0291 115.475 18.5817 116.945 19.6869C118.426 20.7807 119.372 22.279 119.782 24.1818L115.133 25.4124C114.86 24.4553 114.381 23.709 113.698 23.1735C113.025 22.6379 112.262 22.3702 111.407 22.3702C110.428 22.3702 109.624 22.6095 108.998 23.088C108.371 23.5552 107.909 24.1989 107.613 25.0193C107.317 25.8282 107.169 26.7455 107.169 27.7709C107.169 29.3775 107.522 30.6821 108.229 31.6847C108.946 32.676 110.006 33.1716 111.407 33.1716C112.456 33.1716 113.253 32.9324 113.8 32.4538C114.347 31.9753 114.757 31.2916 115.031 30.4029L119.782 31.3942C119.258 33.3539 118.267 34.8636 116.808 35.9233C115.35 36.9829 113.549 37.5127 111.407 37.5127ZM121.491 37V18.5418H125.593V23.0538L125.149 22.4727C125.388 21.8347 125.707 21.2536 126.106 20.7295C126.505 20.2053 126.995 19.7724 127.576 19.4305C128.02 19.1571 128.504 18.9463 129.028 18.7982C129.553 18.6387 130.094 18.5418 130.652 18.5076C131.21 18.4621 131.769 18.4735 132.327 18.5418V22.8829C131.814 22.7234 131.216 22.6721 130.532 22.7291C129.86 22.7747 129.251 22.9285 128.704 23.1905C128.157 23.4412 127.695 23.7773 127.319 24.1989C126.943 24.6091 126.658 25.099 126.465 25.6687C126.271 26.227 126.174 26.8594 126.174 27.5658V37H121.491ZM138.629 37.5127C137.307 37.5127 136.185 37.2621 135.262 36.7607C134.351 36.248 133.656 35.5701 133.177 34.7269C132.71 33.8724 132.476 32.9324 132.476 31.9069C132.476 31.0524 132.607 30.2719 132.869 29.5655C133.131 28.859 133.553 28.2381 134.134 27.7025C134.727 27.1556 135.518 26.6999 136.51 26.3353C137.193 26.0846 138.008 25.8624 138.954 25.6687C139.899 25.475 140.97 25.2927 142.167 25.1218C143.363 24.9395 144.679 24.7401 146.115 24.5236L144.44 25.4465C144.44 24.3527 144.178 23.5495 143.654 23.0367C143.13 22.524 142.252 22.2676 141.022 22.2676C140.338 22.2676 139.626 22.4328 138.885 22.7633C138.145 23.0937 137.626 23.6805 137.33 24.5236L133.126 23.1905C133.593 21.6638 134.47 20.4218 135.758 19.4647C137.045 18.5076 138.8 18.0291 141.022 18.0291C142.651 18.0291 144.098 18.2798 145.363 18.7811C146.628 19.2824 147.585 20.1484 148.234 21.3789C148.599 22.0625 148.815 22.7462 148.884 23.4298C148.952 24.1135 148.986 24.8768 148.986 25.72V37H144.918V33.2058L145.5 33.992C144.599 35.2339 143.625 36.1341 142.577 36.6924C141.54 37.2393 140.224 37.5127 138.629 37.5127ZM139.62 33.8553C140.475 33.8553 141.193 33.7072 141.774 33.4109C142.366 33.1033 142.833 32.7558 143.175 32.3684C143.528 31.981 143.768 31.6562 143.893 31.3942C144.132 30.8928 144.269 30.3118 144.303 29.6509C144.349 28.9787 144.372 28.4204 144.372 27.976L145.739 28.3178C144.36 28.5457 143.244 28.7394 142.389 28.8989C141.534 29.047 140.845 29.1838 140.321 29.3091C139.797 29.4344 139.335 29.5712 138.937 29.7193C138.481 29.9016 138.111 30.101 137.826 30.3175C137.552 30.5225 137.347 30.7504 137.21 31.0011C137.085 31.2518 137.022 31.5309 137.022 31.8385C137.022 32.2601 137.125 32.6247 137.33 32.9324C137.547 33.2286 137.848 33.4565 138.236 33.616C138.623 33.7755 139.085 33.8553 139.62 33.8553ZM153.259 37V18.6102C153.259 18.143 153.27 17.6132 153.293 17.0207C153.316 16.4282 153.407 15.8301 153.567 15.2262C153.738 14.6223 154.045 14.0754 154.49 13.5855C155.059 12.9474 155.675 12.5144 156.335 12.2865C157.008 12.0473 157.657 11.9219 158.284 11.9105C158.91 11.8878 159.446 11.8764 159.89 11.8764H162.181V15.6364H160.061C159.332 15.6364 158.791 15.8244 158.438 16.2004C158.084 16.565 157.908 17.0036 157.908 17.5164V37H153.259ZM150.354 22.1309V18.5418H162.181V22.1309H150.354ZM174.272 37C172.996 37.2393 171.743 37.3418 170.512 37.3076C169.293 37.2848 168.199 37.0741 167.231 36.6753C166.274 36.2651 165.544 35.6099 165.043 34.7098C164.587 33.8667 164.348 33.0121 164.325 32.1462C164.302 31.2688 164.291 30.2776 164.291 29.1724V13.4145H168.94V28.8989C168.94 29.6167 168.945 30.2662 168.957 30.8473C168.98 31.417 169.099 31.8727 169.316 32.2145C169.726 32.864 170.381 33.2172 171.281 33.2742C172.181 33.3312 173.178 33.2856 174.272 33.1375V37ZM161.146 22.1309V18.5418H174.272V22.1309H161.146ZM180.101 37L187.621 12.3891H194.56L202.08 37H197.295L190.595 15.2945H191.484L184.887 37H180.101ZM184.613 31.8727V27.5316H197.602V31.8727H184.613ZM203.776 37V12.3891H208.425V37H203.776Z" fill="white"/>
<defs>
<linearGradient id="paint0_linear_6_1691" x1="23.5406" y1="-11.1315" x2="65.0595" y2="30.3874" gradientUnits="userSpaceOnUse">
<stop stop-color="#5DFF89"/>
<stop offset="1" stop-color="#2DFF65"/>
</linearGradient>
<linearGradient id="paint1_linear_6_1691" x1="-23.1895" y1="6.72856" x2="0.555087" y2="-15.7833" gradientUnits="userSpaceOnUse">
<stop stop-color="#FFF9F6"/>
<stop offset="0.987" stop-color="#2A1105"/>
<stop offset="1" stop-color="#D24703"/>
</linearGradient>
<linearGradient id="paint2_linear_6_1691" x1="20.5912" y1="-6.66744" x2="32.4836" y2="30.5707" gradientUnits="userSpaceOnUse">
<stop stop-color="#75FE99"/>
<stop offset="0.5" stop-color="#196E2F"/>
<stop offset="1" stop-color="#21FF5C"/>
</linearGradient>
<linearGradient id="paint3_linear_6_1691" x1="8.7631" y1="-10.2741" x2="35.9592" y2="23.1162" gradientUnits="userSpaceOnUse">
<stop stop-color="#3AA456"/>
<stop offset="1"/>
</linearGradient>
</defs>
</svg>
